<mxfile host="app.diagrams.net" modified="2024-03-22T01:25:41.581Z" agent="Mozilla/5.0 (Windows NT 10.0; Win64; x64) AppleWebKit/537.36 (KHTML, like Gecko) Chrome/121.0.0.0 Safari/537.36" etag="BDKQsujqCKsr3h_frL1v" version="24.0.7" type="device">
  <diagram name="Página-1" id="5C7zKBKVc0QwbAKWpgRL">
    <mxGraphModel dx="1434" dy="790" grid="1" gridSize="10" guides="1" tooltips="1" connect="1" arrows="1" fold="1" page="1" pageScale="1" pageWidth="827" pageHeight="1169" math="0" shadow="0">
      <root>
        <mxCell id="0" />
        <mxCell id="1" parent="0" />
        <mxCell id="kdci4cge1ZjTnSdA9n7U-3" value="" style="edgeStyle=orthogonalEdgeStyle;rounded=0;orthogonalLoop=1;jettySize=auto;html=1;" edge="1" parent="1" source="kdci4cge1ZjTnSdA9n7U-1" target="kdci4cge1ZjTnSdA9n7U-2">
          <mxGeometry relative="1" as="geometry" />
        </mxCell>
        <mxCell id="kdci4cge1ZjTnSdA9n7U-1" value="" style="ellipse;fillColor=strokeColor;html=1;" vertex="1" parent="1">
          <mxGeometry y="330" width="30" height="30" as="geometry" />
        </mxCell>
        <mxCell id="kdci4cge1ZjTnSdA9n7U-16" value="" style="edgeStyle=orthogonalEdgeStyle;rounded=0;orthogonalLoop=1;jettySize=auto;html=1;" edge="1" parent="1" source="kdci4cge1ZjTnSdA9n7U-2" target="kdci4cge1ZjTnSdA9n7U-15">
          <mxGeometry relative="1" as="geometry" />
        </mxCell>
        <mxCell id="kdci4cge1ZjTnSdA9n7U-2" value="&lt;font color=&quot;#ffffff&quot;&gt;Exibir Formulário&lt;/font&gt;" style="whiteSpace=wrap;html=1;fillColor=strokeColor;" vertex="1" parent="1">
          <mxGeometry x="65" y="315" width="120" height="60" as="geometry" />
        </mxCell>
        <mxCell id="kdci4cge1ZjTnSdA9n7U-6" value="" style="ellipse;html=1;shape=endState;fillColor=strokeColor;" vertex="1" parent="1">
          <mxGeometry x="997" y="330" width="30" height="30" as="geometry" />
        </mxCell>
        <mxCell id="kdci4cge1ZjTnSdA9n7U-28" value="" style="edgeStyle=orthogonalEdgeStyle;rounded=0;orthogonalLoop=1;jettySize=auto;html=1;" edge="1" parent="1" source="kdci4cge1ZjTnSdA9n7U-8" target="kdci4cge1ZjTnSdA9n7U-27">
          <mxGeometry relative="1" as="geometry" />
        </mxCell>
        <mxCell id="kdci4cge1ZjTnSdA9n7U-54" value="" style="edgeStyle=orthogonalEdgeStyle;rounded=0;orthogonalLoop=1;jettySize=auto;html=1;" edge="1" parent="1" source="kdci4cge1ZjTnSdA9n7U-8" target="kdci4cge1ZjTnSdA9n7U-15">
          <mxGeometry relative="1" as="geometry" />
        </mxCell>
        <mxCell id="kdci4cge1ZjTnSdA9n7U-8" value="&lt;font color=&quot;#ffffff&quot;&gt;Preenche&lt;/font&gt;&lt;div&gt;&lt;font color=&quot;#ffffff&quot;&gt;Correto?&lt;/font&gt;&lt;/div&gt;" style="rhombus;whiteSpace=wrap;html=1;fillColor=strokeColor;fontColor=none;" vertex="1" parent="1">
          <mxGeometry x="480" y="305" width="80" height="80" as="geometry" />
        </mxCell>
        <mxCell id="kdci4cge1ZjTnSdA9n7U-13" style="edgeStyle=orthogonalEdgeStyle;rounded=0;orthogonalLoop=1;jettySize=auto;html=1;entryX=0;entryY=0.5;entryDx=0;entryDy=0;" edge="1" parent="1" source="kdci4cge1ZjTnSdA9n7U-11" target="kdci4cge1ZjTnSdA9n7U-6">
          <mxGeometry relative="1" as="geometry" />
        </mxCell>
        <mxCell id="kdci4cge1ZjTnSdA9n7U-11" value="&lt;font color=&quot;#ffffff&quot;&gt;Salva&lt;/font&gt;" style="whiteSpace=wrap;html=1;fillColor=strokeColor;fontColor=none;" vertex="1" parent="1">
          <mxGeometry x="827" y="315" width="110" height="60" as="geometry" />
        </mxCell>
        <mxCell id="kdci4cge1ZjTnSdA9n7U-14" value="Não" style="text;html=1;align=center;verticalAlign=middle;resizable=0;points=[];autosize=1;strokeColor=none;fillColor=none;fontSize=17;" vertex="1" parent="1">
          <mxGeometry x="750" y="320" width="50" height="30" as="geometry" />
        </mxCell>
        <mxCell id="kdci4cge1ZjTnSdA9n7U-18" value="" style="edgeStyle=orthogonalEdgeStyle;rounded=0;orthogonalLoop=1;jettySize=auto;html=1;" edge="1" parent="1" source="kdci4cge1ZjTnSdA9n7U-15" target="kdci4cge1ZjTnSdA9n7U-17">
          <mxGeometry relative="1" as="geometry" />
        </mxCell>
        <mxCell id="kdci4cge1ZjTnSdA9n7U-38" value="" style="edgeStyle=orthogonalEdgeStyle;rounded=0;orthogonalLoop=1;jettySize=auto;html=1;" edge="1" parent="1" source="kdci4cge1ZjTnSdA9n7U-15" target="kdci4cge1ZjTnSdA9n7U-37">
          <mxGeometry relative="1" as="geometry" />
        </mxCell>
        <mxCell id="kdci4cge1ZjTnSdA9n7U-15" value="&lt;font color=&quot;#ffffff&quot;&gt;Preencher Formulário&lt;/font&gt;" style="whiteSpace=wrap;html=1;fillColor=strokeColor;" vertex="1" parent="1">
          <mxGeometry x="265" y="315" width="120" height="60" as="geometry" />
        </mxCell>
        <mxCell id="kdci4cge1ZjTnSdA9n7U-20" value="" style="edgeStyle=orthogonalEdgeStyle;rounded=0;orthogonalLoop=1;jettySize=auto;html=1;" edge="1" parent="1" source="kdci4cge1ZjTnSdA9n7U-17" target="kdci4cge1ZjTnSdA9n7U-19">
          <mxGeometry relative="1" as="geometry" />
        </mxCell>
        <mxCell id="kdci4cge1ZjTnSdA9n7U-24" style="edgeStyle=orthogonalEdgeStyle;rounded=0;orthogonalLoop=1;jettySize=auto;html=1;entryX=0;entryY=1;entryDx=0;entryDy=0;" edge="1" parent="1" source="kdci4cge1ZjTnSdA9n7U-17" target="kdci4cge1ZjTnSdA9n7U-8">
          <mxGeometry relative="1" as="geometry">
            <Array as="points">
              <mxPoint x="424" y="478" />
              <mxPoint x="424" y="400" />
              <mxPoint x="480" y="400" />
              <mxPoint x="480" y="365" />
            </Array>
          </mxGeometry>
        </mxCell>
        <mxCell id="kdci4cge1ZjTnSdA9n7U-17" value="&lt;font color=&quot;#ffffff&quot;&gt;Preencher&lt;/font&gt;&lt;div&gt;&lt;font color=&quot;#ffffff&quot;&gt;Membro&lt;/font&gt;&lt;/div&gt;&lt;div&gt;&lt;font color=&quot;#ffffff&quot;&gt;Externo&lt;/font&gt;&lt;/div&gt;" style="rhombus;whiteSpace=wrap;html=1;fillColor=strokeColor;" vertex="1" parent="1">
          <mxGeometry x="282.5" y="430" width="85" height="95" as="geometry" />
        </mxCell>
        <mxCell id="kdci4cge1ZjTnSdA9n7U-22" value="" style="edgeStyle=orthogonalEdgeStyle;rounded=0;orthogonalLoop=1;jettySize=auto;html=1;" edge="1" parent="1" source="kdci4cge1ZjTnSdA9n7U-19" target="kdci4cge1ZjTnSdA9n7U-21">
          <mxGeometry relative="1" as="geometry" />
        </mxCell>
        <mxCell id="kdci4cge1ZjTnSdA9n7U-19" value="&lt;font color=&quot;#ffffff&quot;&gt;Exibir Formulário&lt;/font&gt;&lt;div&gt;&lt;font color=&quot;#ffffff&quot;&gt;Membro Externo&lt;/font&gt;&lt;/div&gt;" style="whiteSpace=wrap;html=1;fillColor=strokeColor;" vertex="1" parent="1">
          <mxGeometry x="265" y="622.5" width="120" height="60" as="geometry" />
        </mxCell>
        <mxCell id="kdci4cge1ZjTnSdA9n7U-23" style="edgeStyle=orthogonalEdgeStyle;rounded=0;orthogonalLoop=1;jettySize=auto;html=1;entryX=0.5;entryY=1;entryDx=0;entryDy=0;" edge="1" parent="1" source="kdci4cge1ZjTnSdA9n7U-21" target="kdci4cge1ZjTnSdA9n7U-8">
          <mxGeometry relative="1" as="geometry" />
        </mxCell>
        <mxCell id="kdci4cge1ZjTnSdA9n7U-21" value="&lt;font color=&quot;#ffffff&quot;&gt;Selecionar Incluir&lt;/font&gt;" style="whiteSpace=wrap;html=1;fillColor=strokeColor;" vertex="1" parent="1">
          <mxGeometry x="460" y="622.5" width="120" height="60" as="geometry" />
        </mxCell>
        <mxCell id="kdci4cge1ZjTnSdA9n7U-25" value="Sim" style="text;html=1;align=center;verticalAlign=middle;resizable=0;points=[];autosize=1;strokeColor=none;fillColor=none;fontSize=17;" vertex="1" parent="1">
          <mxGeometry x="280" y="550" width="50" height="30" as="geometry" />
        </mxCell>
        <mxCell id="kdci4cge1ZjTnSdA9n7U-26" value="Não" style="text;html=1;align=center;verticalAlign=middle;resizable=0;points=[];autosize=1;strokeColor=none;fillColor=none;fontSize=17;" vertex="1" parent="1">
          <mxGeometry x="367.5" y="450" width="50" height="30" as="geometry" />
        </mxCell>
        <mxCell id="kdci4cge1ZjTnSdA9n7U-29" style="edgeStyle=orthogonalEdgeStyle;rounded=0;orthogonalLoop=1;jettySize=auto;html=1;entryX=0;entryY=0.5;entryDx=0;entryDy=0;" edge="1" parent="1" source="kdci4cge1ZjTnSdA9n7U-27" target="kdci4cge1ZjTnSdA9n7U-11">
          <mxGeometry relative="1" as="geometry" />
        </mxCell>
        <mxCell id="kdci4cge1ZjTnSdA9n7U-31" value="" style="edgeStyle=orthogonalEdgeStyle;rounded=0;orthogonalLoop=1;jettySize=auto;html=1;" edge="1" parent="1" source="kdci4cge1ZjTnSdA9n7U-27" target="kdci4cge1ZjTnSdA9n7U-30">
          <mxGeometry relative="1" as="geometry" />
        </mxCell>
        <mxCell id="kdci4cge1ZjTnSdA9n7U-27" value="&lt;font color=&quot;#ffffff&quot;&gt;Excluir&lt;/font&gt;&lt;div&gt;&lt;font color=&quot;#ffffff&quot;&gt;Membros?&lt;/font&gt;&lt;/div&gt;" style="rhombus;whiteSpace=wrap;html=1;fillColor=strokeColor;fontColor=none;" vertex="1" parent="1">
          <mxGeometry x="640" y="305" width="80" height="80" as="geometry" />
        </mxCell>
        <mxCell id="kdci4cge1ZjTnSdA9n7U-32" style="edgeStyle=orthogonalEdgeStyle;rounded=0;orthogonalLoop=1;jettySize=auto;html=1;entryX=0.5;entryY=1;entryDx=0;entryDy=0;" edge="1" parent="1" source="kdci4cge1ZjTnSdA9n7U-30" target="kdci4cge1ZjTnSdA9n7U-11">
          <mxGeometry relative="1" as="geometry" />
        </mxCell>
        <mxCell id="kdci4cge1ZjTnSdA9n7U-30" value="&lt;font color=&quot;#ffffff&quot;&gt;Remova Participante&lt;/font&gt;" style="whiteSpace=wrap;html=1;fillColor=strokeColor;fontColor=none;" vertex="1" parent="1">
          <mxGeometry x="620" y="475" width="120" height="60" as="geometry" />
        </mxCell>
        <mxCell id="kdci4cge1ZjTnSdA9n7U-33" value="Sim" style="text;html=1;align=center;verticalAlign=middle;resizable=0;points=[];autosize=1;strokeColor=none;fillColor=none;fontSize=17;" vertex="1" parent="1">
          <mxGeometry x="680" y="410" width="50" height="30" as="geometry" />
        </mxCell>
        <mxCell id="kdci4cge1ZjTnSdA9n7U-40" value="" style="edgeStyle=orthogonalEdgeStyle;rounded=0;orthogonalLoop=1;jettySize=auto;html=1;" edge="1" parent="1" source="kdci4cge1ZjTnSdA9n7U-37" target="kdci4cge1ZjTnSdA9n7U-39">
          <mxGeometry relative="1" as="geometry" />
        </mxCell>
        <mxCell id="kdci4cge1ZjTnSdA9n7U-37" value="&lt;font color=&quot;#ffffff&quot;&gt;Pesquisar&amp;nbsp;&lt;/font&gt;&lt;div&gt;&lt;font color=&quot;#ffffff&quot;&gt;Funcionário?&lt;/font&gt;&lt;/div&gt;" style="rhombus;whiteSpace=wrap;html=1;fillColor=strokeColor;" vertex="1" parent="1">
          <mxGeometry x="272.5" y="165" width="105" height="85" as="geometry" />
        </mxCell>
        <mxCell id="kdci4cge1ZjTnSdA9n7U-42" value="" style="edgeStyle=orthogonalEdgeStyle;rounded=0;orthogonalLoop=1;jettySize=auto;html=1;" edge="1" parent="1" source="kdci4cge1ZjTnSdA9n7U-39" target="kdci4cge1ZjTnSdA9n7U-41">
          <mxGeometry relative="1" as="geometry" />
        </mxCell>
        <mxCell id="kdci4cge1ZjTnSdA9n7U-39" value="&lt;font color=&quot;#ffffff&quot;&gt;Abrir Formulário de pesquisa&lt;/font&gt;" style="whiteSpace=wrap;html=1;fillColor=strokeColor;" vertex="1" parent="1">
          <mxGeometry x="450" y="177.5" width="120" height="60" as="geometry" />
        </mxCell>
        <mxCell id="kdci4cge1ZjTnSdA9n7U-44" value="" style="edgeStyle=orthogonalEdgeStyle;rounded=0;orthogonalLoop=1;jettySize=auto;html=1;" edge="1" parent="1" source="kdci4cge1ZjTnSdA9n7U-41" target="kdci4cge1ZjTnSdA9n7U-43">
          <mxGeometry relative="1" as="geometry" />
        </mxCell>
        <mxCell id="kdci4cge1ZjTnSdA9n7U-41" value="&lt;font color=&quot;#ffffff&quot;&gt;Exibe Campo matrícula e nome&lt;/font&gt;" style="whiteSpace=wrap;html=1;fillColor=strokeColor;" vertex="1" parent="1">
          <mxGeometry x="650" y="177.5" width="120" height="60" as="geometry" />
        </mxCell>
        <mxCell id="kdci4cge1ZjTnSdA9n7U-46" value="" style="edgeStyle=orthogonalEdgeStyle;rounded=0;orthogonalLoop=1;jettySize=auto;html=1;" edge="1" parent="1" source="kdci4cge1ZjTnSdA9n7U-43" target="kdci4cge1ZjTnSdA9n7U-45">
          <mxGeometry relative="1" as="geometry" />
        </mxCell>
        <mxCell id="kdci4cge1ZjTnSdA9n7U-50" style="edgeStyle=orthogonalEdgeStyle;rounded=0;orthogonalLoop=1;jettySize=auto;html=1;entryX=0.5;entryY=0;entryDx=0;entryDy=0;" edge="1" parent="1" source="kdci4cge1ZjTnSdA9n7U-43" target="kdci4cge1ZjTnSdA9n7U-37">
          <mxGeometry relative="1" as="geometry">
            <mxPoint x="910" y="110" as="targetPoint" />
            <Array as="points">
              <mxPoint x="910" y="139" />
              <mxPoint x="911" y="139" />
              <mxPoint x="911" y="110" />
              <mxPoint x="325" y="110" />
            </Array>
          </mxGeometry>
        </mxCell>
        <mxCell id="kdci4cge1ZjTnSdA9n7U-43" value="&lt;font color=&quot;#ffffff&quot;&gt;Existe?&lt;/font&gt;" style="rhombus;whiteSpace=wrap;html=1;fillColor=strokeColor;" vertex="1" parent="1">
          <mxGeometry x="870" y="167.5" width="80" height="80" as="geometry" />
        </mxCell>
        <mxCell id="kdci4cge1ZjTnSdA9n7U-48" style="edgeStyle=orthogonalEdgeStyle;rounded=0;orthogonalLoop=1;jettySize=auto;html=1;entryX=0.5;entryY=0;entryDx=0;entryDy=0;" edge="1" parent="1" source="kdci4cge1ZjTnSdA9n7U-45" target="kdci4cge1ZjTnSdA9n7U-8">
          <mxGeometry relative="1" as="geometry">
            <mxPoint x="1070" y="290" as="targetPoint" />
            <Array as="points">
              <mxPoint x="1070" y="264" />
              <mxPoint x="1071" y="264" />
              <mxPoint x="1071" y="290" />
              <mxPoint x="520" y="290" />
            </Array>
          </mxGeometry>
        </mxCell>
        <mxCell id="kdci4cge1ZjTnSdA9n7U-45" value="&lt;font color=&quot;#ffffff&quot;&gt;Retorna Nome&lt;/font&gt;" style="whiteSpace=wrap;html=1;fillColor=strokeColor;" vertex="1" parent="1">
          <mxGeometry x="1010" y="177.5" width="120" height="60" as="geometry" />
        </mxCell>
        <mxCell id="kdci4cge1ZjTnSdA9n7U-49" value="Sim" style="text;html=1;align=center;verticalAlign=middle;resizable=0;points=[];autosize=1;strokeColor=none;fillColor=none;fontSize=17;" vertex="1" parent="1">
          <mxGeometry x="947" y="170" width="50" height="30" as="geometry" />
        </mxCell>
        <mxCell id="kdci4cge1ZjTnSdA9n7U-51" value="Não" style="text;html=1;align=center;verticalAlign=middle;resizable=0;points=[];autosize=1;strokeColor=none;fillColor=none;fontSize=17;" vertex="1" parent="1">
          <mxGeometry x="560" y="80" width="50" height="30" as="geometry" />
        </mxCell>
        <mxCell id="kdci4cge1ZjTnSdA9n7U-52" value="Sim" style="text;html=1;align=center;verticalAlign=middle;resizable=0;points=[];autosize=1;strokeColor=none;fillColor=none;fontSize=17;" vertex="1" parent="1">
          <mxGeometry x="385" y="180" width="50" height="30" as="geometry" />
        </mxCell>
        <mxCell id="kdci4cge1ZjTnSdA9n7U-53" value="Sim" style="text;html=1;align=center;verticalAlign=middle;resizable=0;points=[];autosize=1;strokeColor=none;fillColor=none;fontSize=17;" vertex="1" parent="1">
          <mxGeometry x="570" y="315" width="50" height="30" as="geometry" />
        </mxCell>
        <mxCell id="kdci4cge1ZjTnSdA9n7U-55" value="Não" style="text;html=1;align=center;verticalAlign=middle;resizable=0;points=[];autosize=1;strokeColor=none;fillColor=none;fontSize=17;" vertex="1" parent="1">
          <mxGeometry x="410" y="315" width="50" height="30" as="geometry" />
        </mxCell>
      </root>
    </mxGraphModel>
  </diagram>
</mxfile>
